<svg width="161" height="37" viewBox="0 0 161 37" fill="none" xmlns="http://www.w3.org/2000/svg">
<rect x="0.5" width="160" height="37" rx="4" fill="#7209B7"/>
<path d="M8.374 30H3.755C3.36233 30 3.073 29.9173 2.887 29.752C2.72167 29.566 2.639 29.2767 2.639 28.884V8.796C2.639 8.40333 2.72167 8.12433 2.887 7.959C3.073 7.773 3.36233 7.68 3.755 7.68H8.746C9.07667 7.68 9.34533 7.75233 9.552 7.897C9.77933 8.04167 9.986 8.27933 10.172 8.61L12.962 13.663C13.0653 13.849 13.148 13.9833 13.21 14.066C13.2927 14.1487 13.396 14.19 13.52 14.19H13.799C13.923 14.19 14.016 14.1487 14.078 14.066C14.1607 13.9833 14.2537 13.849 14.357 13.663L17.116 8.61C17.302 8.27933 17.4983 8.04167 17.705 7.897C17.9323 7.75233 18.2113 7.68 18.542 7.68H23.564C23.9567 7.68 24.2357 7.773 24.401 7.959C24.587 8.12433 24.68 8.40333 24.68 8.796V28.884C24.68 29.2767 24.587 29.566 24.401 29.752C24.2357 29.9173 23.9567 30 23.564 30H18.79C18.3973 30 18.108 29.9173 17.922 29.752C17.7567 29.566 17.674 29.2767 17.674 28.884V17.972L15.845 21.351C15.659 21.7023 15.4317 21.9607 15.163 22.126C14.915 22.2707 14.5947 22.343 14.202 22.343H12.962C12.5693 22.343 12.2387 22.2707 11.97 22.126C11.722 21.9607 11.505 21.7023 11.319 21.351L9.49 17.972V28.884C9.49 29.2767 9.397 29.566 9.211 29.752C9.04567 29.9173 8.76667 30 8.374 30ZM40.2616 30H35.2396C34.847 30 34.5576 29.9173 34.3716 29.752C34.2063 29.566 34.1236 29.2767 34.1236 28.884V24.916L29.3806 18.561C28.9053 17.9203 28.585 17.3623 28.4196 16.887C28.275 16.4117 28.2026 15.6987 28.2026 14.748V8.796C28.2026 8.40333 28.2853 8.12433 28.4506 7.959C28.6366 7.773 28.926 7.68 29.3186 7.68H34.0926C34.4853 7.68 34.7643 7.773 34.9296 7.959C35.1156 8.12433 35.2086 8.40333 35.2086 8.796V13.88C35.2086 14.0867 35.219 14.3037 35.2396 14.531C35.2603 14.7583 35.343 14.9753 35.4876 15.182L36.9136 17.414C37.017 17.6 37.1203 17.7343 37.2236 17.817C37.3476 17.8997 37.4923 17.941 37.6576 17.941H37.9676C38.133 17.941 38.2673 17.8997 38.3706 17.817C38.4946 17.7343 38.6083 17.6 38.7116 17.414L40.1376 15.182C40.2823 14.9753 40.365 14.7583 40.3856 14.531C40.4063 14.3037 40.4166 14.0867 40.4166 13.88V8.796C40.4166 8.40333 40.4993 8.12433 40.6646 7.959C40.8506 7.773 41.14 7.68 41.5326 7.68H46.1516C46.5443 7.68 46.8233 7.773 46.9886 7.959C47.1746 8.12433 47.2676 8.40333 47.2676 8.796V14.748C47.2676 15.6987 47.185 16.4117 47.0196 16.887C46.8543 17.3623 46.5443 17.9203 46.0896 18.561L41.3776 24.947V28.884C41.3776 29.2767 41.2846 29.566 41.0986 29.752C40.9333 29.9173 40.6543 30 40.2616 30ZM67.854 30H58.089C55.5057 30 53.5837 29.4833 52.323 28.45C51.083 27.4167 50.463 25.8253 50.463 23.676V14.004C50.463 11.8547 51.083 10.2633 52.323 9.23C53.5837 8.19667 55.5057 7.68 58.089 7.68H65.839C66.2317 7.68 66.5107 7.773 66.676 7.959C66.862 8.12433 66.955 8.40333 66.955 8.796V12.547C66.955 12.9397 66.862 13.229 66.676 13.415C66.5107 13.5803 66.2317 13.663 65.839 13.663H59.391C58.7504 13.663 58.275 13.7973 57.965 14.066C57.655 14.314 57.5 14.6963 57.5 15.213V22.622C57.5 23.1387 57.6137 23.521 57.841 23.769C58.089 24.017 58.4507 24.141 58.926 24.141H61.933V19.305C61.933 18.9123 62.0157 18.6333 62.181 18.468C62.367 18.282 62.6564 18.189 63.049 18.189H67.854C68.2467 18.189 68.5257 18.282 68.691 18.468C68.877 18.6333 68.97 18.9123 68.97 19.305V28.884C68.97 29.2767 68.877 29.566 68.691 29.752C68.5257 29.9173 68.2467 30 67.854 30ZM80.8433 14.19L79.3863 18.902H84.2533L82.7963 14.19C82.7136 14.004 82.6206 13.8697 82.5173 13.787C82.4346 13.7043 82.3313 13.663 82.2073 13.663H81.4323C81.3083 13.663 81.1946 13.7043 81.0913 13.787C81.0086 13.8697 80.9259 14.004 80.8433 14.19ZM79.0763 28.884C79.0763 29.2767 78.9833 29.566 78.7973 29.752C78.6319 29.9173 78.3529 30 77.9603 30H73.4033C73.0106 30 72.7213 29.9173 72.5353 29.752C72.3699 29.566 72.2873 29.2767 72.2873 28.884V20.7C72.2873 20.08 72.3803 19.367 72.5663 18.561C72.7729 17.755 73.0829 16.8147 73.4963 15.74L76.1933 8.703C76.3173 8.35167 76.5033 8.09333 76.7513 7.928C77.0199 7.76267 77.3609 7.68 77.7743 7.68H86.1133C86.5059 7.68 86.8263 7.76267 87.0743 7.928C87.3429 8.09333 87.5393 8.35167 87.6633 8.703L90.3603 15.74C90.7736 16.8147 91.0733 17.755 91.2593 18.561C91.4659 19.367 91.5693 20.08 91.5693 20.7V28.884C91.5693 29.2767 91.4763 29.566 91.2903 29.752C91.1249 29.9173 90.8459 30 90.4533 30H85.7723C85.3589 30 85.0489 29.9173 84.8423 29.752C84.6563 29.566 84.5633 29.2767 84.5633 28.884V24.544H79.0763V28.884ZM101.132 30H96.5128C96.1201 30 95.8308 29.9173 95.6448 29.752C95.4795 29.566 95.3968 29.2767 95.3968 28.884V8.796C95.3968 8.40333 95.4795 8.12433 95.6448 7.959C95.8308 7.773 96.1201 7.68 96.5128 7.68H101.504C101.834 7.68 102.103 7.75233 102.31 7.897C102.537 8.04167 102.744 8.27933 102.93 8.61L105.72 13.663C105.823 13.849 105.906 13.9833 105.968 14.066C106.05 14.1487 106.154 14.19 106.278 14.19H106.557C106.681 14.19 106.774 14.1487 106.836 14.066C106.918 13.9833 107.011 13.849 107.115 13.663L109.874 8.61C110.06 8.27933 110.256 8.04167 110.463 7.897C110.69 7.75233 110.969 7.68 111.3 7.68H116.322C116.714 7.68 116.993 7.773 117.159 7.959C117.345 8.12433 117.438 8.40333 117.438 8.796V28.884C117.438 29.2767 117.345 29.566 117.159 29.752C116.993 29.9173 116.714 30 116.322 30H111.548C111.155 30 110.866 29.9173 110.68 29.752C110.514 29.566 110.432 29.2767 110.432 28.884V17.972L108.603 21.351C108.417 21.7023 108.189 21.9607 107.921 22.126C107.673 22.2707 107.352 22.343 106.96 22.343H105.72C105.327 22.343 104.996 22.2707 104.728 22.126C104.48 21.9607 104.263 21.7023 104.077 21.351L102.248 17.972V28.884C102.248 29.2767 102.155 29.566 101.969 29.752C101.803 29.9173 101.524 30 101.132 30ZM137.204 30H122.82C122.428 30 122.138 29.9173 121.952 29.752C121.787 29.566 121.704 29.2767 121.704 28.884V8.796C121.704 8.40333 121.787 8.12433 121.952 7.959C122.138 7.773 122.428 7.68 122.82 7.68H137.204C137.597 7.68 137.876 7.773 138.041 7.959C138.227 8.12433 138.32 8.40333 138.32 8.796V12.423C138.32 12.8157 138.227 13.105 138.041 13.291C137.876 13.4563 137.597 13.539 137.204 13.539H128.648V15.926H134.693C135.086 15.926 135.365 16.019 135.53 16.205C135.716 16.3703 135.809 16.6493 135.809 17.042V20.359C135.809 20.7517 135.716 21.041 135.53 21.227C135.365 21.3923 135.086 21.475 134.693 21.475H128.648V24.141H137.204C137.597 24.141 137.876 24.234 138.041 24.42C138.227 24.5853 138.32 24.8643 138.32 25.257V28.884C138.32 29.2767 138.227 29.566 138.041 29.752C137.876 29.9173 137.597 30 137.204 30ZM152.342 30H142.546C142.153 30 141.864 29.9173 141.678 29.752C141.512 29.566 141.43 29.2767 141.43 28.884V25.257C141.43 24.8643 141.512 24.5853 141.678 24.42C141.864 24.234 142.153 24.141 142.546 24.141H150.885C151.153 24.141 151.35 24.0583 151.474 23.893C151.618 23.707 151.691 23.49 151.691 23.242C151.691 22.8907 151.618 22.6323 151.474 22.467C151.35 22.3017 151.153 22.2087 150.885 22.188L146.235 21.537C144.788 21.3303 143.62 20.855 142.732 20.111C141.864 19.367 141.43 18.127 141.43 16.391V13.136C141.43 11.3793 141.998 10.036 143.135 9.106C144.271 8.15533 145.842 7.68 147.847 7.68H156.527C156.919 7.68 157.198 7.773 157.364 7.959C157.55 8.12433 157.643 8.40333 157.643 8.796V12.485C157.643 12.8777 157.55 13.167 157.364 13.353C157.198 13.5183 156.919 13.601 156.527 13.601H149.304C149.035 13.601 148.828 13.694 148.684 13.88C148.539 14.0453 148.467 14.2623 148.467 14.531C148.467 14.7997 148.539 15.027 148.684 15.213C148.828 15.399 149.035 15.5023 149.304 15.523L153.923 16.143C155.369 16.3497 156.537 16.825 157.426 17.569C158.314 18.313 158.759 19.553 158.759 21.289V24.544C158.759 26.3007 158.18 27.6543 157.023 28.605C155.886 29.535 154.326 30 152.342 30Z" fill="white"/>
</svg>
