<svg width="100" height="75" viewBox="0 0 100 75" fill="none" xmlns="http://www.w3.org/2000/svg">
<path d="M69.3716 32.2685H59.6911C58.4074 32.2685 57.1762 31.7585 56.2685 30.8508C55.3608 29.943 54.8508 28.7119 54.8508 27.4282C54.8508 26.1445 55.3608 24.9133 56.2685 24.0056C57.1762 23.0979 58.4074 22.5879 59.6911 22.5879H69.3716C70.6554 22.5879 71.8865 23.0979 72.7942 24.0056C73.702 24.9133 74.2119 26.1445 74.2119 27.4282C74.2119 28.7119 73.702 29.943 72.7942 30.8508C71.8865 31.7585 70.6554 32.2685 69.3716 32.2685ZM40.33 22.5879H38.7166V20.9745C38.7166 19.6908 38.2067 18.4596 37.2989 17.5519C36.3912 16.6442 35.1601 16.1342 33.8763 16.1342C32.5926 16.1342 31.3615 16.6442 30.4538 17.5519C29.546 18.4596 29.0361 19.6908 29.0361 20.9745V22.5879H27.4227C26.1389 22.5879 24.9078 23.0979 24.0001 24.0056C23.0923 24.9133 22.5824 26.1445 22.5824 27.4282C22.5824 28.7119 23.0923 29.943 24.0001 30.8508C24.9078 31.7585 26.1389 32.2685 27.4227 32.2685H29.0361V33.8819C29.0361 35.1656 29.546 36.3967 30.4538 37.3045C31.3615 38.2122 32.5926 38.7221 33.8763 38.7221C35.1601 38.7221 36.3912 38.2122 37.2989 37.3045C38.2067 36.3967 38.7166 35.1656 38.7166 33.8819V32.2685H40.33C41.6138 32.2685 42.8449 31.7585 43.7526 30.8508C44.6603 29.943 45.1703 28.7119 45.1703 27.4282C45.1703 26.1445 44.6603 24.9133 43.7526 24.0056C42.8449 23.0979 41.6138 22.5879 40.33 22.5879ZM97.1064 67.3362C95.7551 69.2629 93.9987 70.8708 91.9603 72.0469C89.9219 73.2231 87.6509 73.939 85.3065 74.1447C82.9622 74.3503 80.6012 74.0405 78.3892 73.2372C76.1772 72.4338 74.1677 71.1563 72.5017 69.4941C72.4263 69.4228 72.355 69.3474 72.2879 69.2683L56.7345 51.6295H43.2866L27.7494 69.2683C27.6808 69.3449 27.6082 69.4215 27.5356 69.4941C25.1086 71.918 21.9723 73.5054 18.5818 74.0257C15.1914 74.5461 11.7234 73.9724 8.68122 72.3879C5.63902 70.8034 3.18096 68.2906 1.66387 65.2142C0.146786 62.1378 -0.35038 58.658 0.244547 55.2799C0.242264 55.253 0.242264 55.2261 0.244547 55.1992L6.85151 21.2931C7.90285 15.3293 11.0212 9.92623 15.6593 6.03242C20.2973 2.13861 26.1587 0.00284277 32.2145 0H67.7582C73.7953 0.00860428 79.6389 2.13019 84.2754 5.99671C88.9118 9.86324 92.0485 15.2307 93.1414 21.1681C93.1427 21.1936 93.1427 21.2192 93.1414 21.2447L99.7403 55.1952C99.7418 55.222 99.7418 55.249 99.7403 55.2759C100.12 57.3604 100.083 59.4996 99.6309 61.5697C99.1788 63.6399 98.3207 65.5998 97.1064 67.3362ZM67.7582 41.949C72.0373 41.949 76.1411 40.2491 79.1668 37.2234C82.1926 34.1976 83.8924 30.0938 83.8924 25.8148C83.8924 21.5357 82.1926 17.4319 79.1668 14.4061C76.1411 11.3804 72.0373 9.68054 67.7582 9.68054H32.2186C28.4313 9.68427 24.7667 11.0235 21.8695 13.4626C18.9723 15.9016 17.028 19.2843 16.3788 23.0155C16.3769 23.0437 16.3769 23.072 16.3788 23.1002L9.78794 56.9821C9.50209 58.6631 9.89313 60.3889 10.8756 61.7825C11.8581 63.1762 13.3522 64.1243 15.0316 64.4199C16.0313 64.5943 17.058 64.5314 18.029 64.2365C19 63.9415 19.8882 63.4227 20.6221 62.7218L37.4662 43.5906C37.9202 43.0751 38.4787 42.662 39.1046 42.379C39.7305 42.0959 40.4095 41.9494 41.0964 41.949H67.7582ZM90.2493 56.9982L87.4258 42.4976C85.2052 45.1235 82.4811 47.278 79.4142 48.834C76.3473 50.3899 72.9998 51.3158 69.5693 51.5569L79.4152 62.7379C80.395 63.6779 81.6463 64.285 82.9911 64.4726C84.3358 64.6603 85.7055 64.4191 86.9052 63.7832C88.1049 63.1474 89.0735 62.1494 89.6732 60.9312C90.2729 59.713 90.4731 58.3367 90.2453 56.9982H90.2493Z" fill="#7209B7"/>
</svg>
